<svg xmlns="http://www.w3.org/2000/svg" xmlns:xlink="http://www.w3.org/1999/xlink" width="1080" zoomAndPan="magnify" viewBox="0 0 810 809.999993" height="1080" preserveAspectRatio="xMidYMid meet" version="1.0">
<style>
rect {
    fill: oklch(0.928 0.006 264.531);
}
path {
    fill: oklch(0.872 0.01 258.338);
}
@media (prefers-color-scheme: dark) {
rect {
    fill: oklch(0.373 0.034 259.733);
}
path {
    fill: oklch(0.446 0.03 256.802);
}
}
</style>
<rect x="-81" width="972" y="-80.999999" height="971.999992" fill-opacity="1"/><path d="M 485.5625 516.578125 C 517.984375 516.578125 544.363281 494.839844 544.363281 468.125 C 544.230469 467.355469 544.164062 466.917969 544.144531 466.46875 L 544.144531 253.84375 C 544.144531 250.578125 542.566406 247.46875 539.925781 245.527344 C 537.316406 243.605469 533.859375 243.035156 530.722656 244 L 369.757812 294.40625 C 365.425781 295.765625 362.519531 299.722656 362.519531 304.261719 L 362.519531 481.375 L 357.058594 478.34375 C 347.324219 472.941406 336.023438 470.085938 324.371094 470.085938 C 291.957031 470.085938 265.582031 491.824219 265.582031 518.539062 C 265.582031 545.261719 291.957031 567 324.371094 567 C 356.789062 567 383.160156 545.261719 383.160156 518.539062 L 383.160156 329.355469 L 523.5 285.394531 L 523.5 430.832031 L 518.054688 427.832031 C 508.339844 422.488281 497.101562 419.664062 485.5625 419.664062 C 453.148438 419.664062 426.777344 441.402344 426.777344 468.125 C 426.777344 494.839844 453.148438 516.578125 485.5625 516.578125 Z M 485.5625 516.578125 " fill-opacity="1" fill-rule="nonzero"/></svg>